<svg xmlns="http://www.w3.org/2000/svg" xmlns:xlink="http://www.w3.org/1999/xlink" viewBox="0 0 1841.81 736.26"><defs><style>.cls-1{fill:url(#Gradiente_sem_nome_55);}.cls-2{fill:url(#Gradiente_sem_nome_55-2);}.cls-3{fill:url(#Gradiente_sem_nome_55-3);}.cls-4{fill:url(#Gradiente_sem_nome_55-4);}.cls-5{fill:url(#Gradiente_sem_nome_55-5);}.cls-6{fill:#6078ea;}</style><linearGradient id="Gradiente_sem_nome_55" x1="990.93" y1="545.17" x2="990.93" y2="73.67" gradientUnits="userSpaceOnUse"><stop offset="0" stop-color="#007fff"/><stop offset="1" stop-color="#3c9"/></linearGradient><linearGradient id="Gradiente_sem_nome_55-2" x1="940.08" y1="236.86" x2="940.08" y2="0" xlink:href="#Gradiente_sem_nome_55"/><linearGradient id="Gradiente_sem_nome_55-3" x1="847.82" y1="554.68" x2="847.82" y2="356.78" xlink:href="#Gradiente_sem_nome_55"/><linearGradient id="Gradiente_sem_nome_55-4" x1="897.5" y1="539.47" x2="897.5" y2="234.69" xlink:href="#Gradiente_sem_nome_55"/><linearGradient id="Gradiente_sem_nome_55-5" x1="862.76" y1="353.52" x2="862.76" y2="246.61" xlink:href="#Gradiente_sem_nome_55"/></defs><title>Ativo 1</title><g id="Camada_2" data-name="Camada 2"><g id="logo"><path class="cls-1" d="M777.24,73.67c3.63,5.35,6.55,9.22,9,13.36,28.36,47.77,63.23,89.5,111.4,118.54,32.84,19.8,68.91,29.36,106.69,35.34,33.89,5.37,67.55,13.43,100.53,23,27.74,8.05,52.72,22.7,71.94,45.17,41,47.9,40.8,116-.53,166-35.93,43.46-85.15,61.11-138.62,70.08-1.54.25-3.27-.65-6.66-1.41,3.7-5.36,6.54-9.77,9.67-14,17.93-24,33.95-48.87,37.13-79.86,3-29.52-7.71-53-31.71-69.53-14.55-10-30.55-18.1-46.38-26.09-36.9-18.62-75.37-34.5-110.92-55.38-82.43-48.42-116.91-123.52-114.2-217.43a15.87,15.87,0,0,1,.42-3.22C775.17,77.56,775.62,77,777.24,73.67Z"/><path class="cls-2" d="M998.6,226.59c5.33-4.75,10.76-9.4,16-14.27,34.92-32.64,44.77-85,24.35-129.15-19.89-43-67.07-69.84-113.56-65.07-10.09,1-10,7.57-10,14.72q-.06,76.74-.2,153.48c0,4.9-.76,9.79-1.32,16.52-4.81-2-8.19-3-11.07-4.75-35.8-22-65.16-50.74-88.94-85.19-2.86-4.14-4.17-10.07-4.32-15.23-.54-17.76-.15-35.55-.29-53.33-.13-16.09-4.11-21.38-19.73-25.19-6-1.46-10.27-3.37-9.73-10.49.57-7.56,5.95-8.28,11.67-8.27C853.9.4,916.34-.78,978.7.94c53.45,1.48,99.35,38.83,115.45,89.78,16.33,51.67-.1,106.8-41.42,140.44-6.24,5.08-12.35,6.71-20,5.12-11.18-2.3-22.47-4.05-33.71-6Z"/><path class="cls-3" d="M809.31,356.78c4.78,2.43,7.05,3.32,9.05,4.63,27.49,18.17,54.55,37,82.62,54.27,10.71,6.57,14.94,13.55,14.63,26-.82,32.64-.27,65.33-.41,98-.06,13.73-1.21,14.87-15,14.91q-52.8.13-105.62-.05c-5.79,0-13.24,1.87-14.41-7.35-1.12-8.77,5.35-9.55,11.63-11,13-3,17.52-9,17.55-23.55.11-46.46,0-92.92,0-139.38Z"/><path class="cls-4" d="M945.83,538.11c2.91-4.36,5.63-7.68,7.54-11.42,5.41-10.6,12-20.92,15.35-32.17,6.3-21.09,1.95-40.57-15.49-55.19-9.11-7.63-19.32-14-29.4-20.4-29.42-18.56-60-35.43-88.32-55.54-37.69-26.78-62.86-62.92-70.59-109.59-1-6-1.26-12-1.87-18l2.64-1.08c1.79,2.73,3.92,5.3,5.33,8.22,24.07,49.77,62.72,85,111.66,108.76,24.37,11.84,50.83,19.29,75.56,30.45,19,8.56,38.51,17.58,54.56,30.44,22.6,18.12,24.55,43.34,9.28,68.33-16.49,27-41.2,44.36-69,57.93a8.24,8.24,0,0,1-3.17.65C949.24,539.5,948.57,539.06,945.83,538.11Z"/><path class="cls-5" d="M812.4,246.61c2.09,1.72,4.5,3.17,6.23,5.2C842,279.34,870.57,300.15,902,317.45c12.35,6.81,17.54,19.71,12.44,32.62-.77,1.95-6.11,4.11-8.11,3.27-35.54-14.92-67.92-34.95-93-64.54-4.82-5.7-3.05-17.14-3.91-26-.47-4.94-.08-10-.08-15Z"/></g><g id="nome"><path class="cls-6" d="M839,672.38c-6.58,17-12.74,34.15-20,50.84-2.07,4.79-7.27,8.21-11,12.26-3.79-3.94-9.11-7.24-11.09-12-6.93-16.48-12.42-33.56-19-50.2-6.24-15.79-8.14-34.35-27.53-43.08,18.26-6,35.08-5.4,56.63-1.63-18.84,10.23-11,21.48-7.31,32.28,3.85,11.16,7.94,22.23,11.93,33.35l4.46.69c5.46-16.06,11.4-32,15.91-48.32.73-2.62-5.57-6.69-7.4-10.66-1.19-2.59-.25-9-.13-9,14.49-.41,29-.39,44.9,1.48-14.61,11.19-7.31,22.77-4.09,33.84,3.15,10.82,6.8,21.48,10.24,32.21l4.31.09c5.55-16.71,11.76-33.26,16.17-50.26,1-3.73-4.46-9.1-7-13.84,7.7-6.36,25.47-6.9,36.75-.68-25.4,25.55-27.62,61.74-42.63,92-2.64,5.35-8.29,9.21-12.55,13.76-3.77-4.55-9-8.52-11-13.74-6.29-16.19-11.36-32.85-16.9-49.33Z"/><path class="cls-6" d="M1442.83,696c6.27-29.32,2.83-50.39-11.48-67.91h41.16c.23,1.51.69,2.95.43,3.09-14.85,8.27-12.39,22.51-12.45,35.85-.07,17.07.57,34.17-.45,51.17-.35,5.83-3.28,14.19-7.63,16.51-7.9,4.21-15.26-.67-20.5-8.13-13.49-19.2-27.24-38.22-40.93-57.27a32.93,32.93,0,0,0-9.52-9.4c2,23.45-11.92,48.69,10,69.31-5.61,4.69-31.32,7.82-36.9,3.72-1.29-.95-.72-5.85.37-8.32,2.86-6.52,8.84-12.52,9.35-19.05a310.4,310.4,0,0,0,0-51.11c-.72-8.42-6-16.46-9.36-25.19,10.52-7.74,35.58-5.24,43.92,6.12,11.87,16.16,23.27,32.66,34.93,49C1436.21,687.72,1438.87,690.9,1442.83,696Z"/><path class="cls-6" d="M456.62,728.44c-10.07,7.64-38.82,8.19-51.78,1.11,20.51-12.28,13.26-32.06,13-49.22-.28-16.92,7.94-36.26-9.66-52.32h49c-14.48,13.35-23.26,29.4-8.87,40.85,7.92,6.31,26.33,2.54,38.75-1.05,7.79-2.26,2.23-24.59-8.9-37.06,7.76-6.59,34.84-7.17,47.18-.3C508,644,513.86,663,514.41,680c.53,16.7-8.83,36.71,12.62,48-8.71,8.26-39.29,8.92-52.36.5,16.53-6.1,16.23-19.28,15.05-32.59-.28-3.17-1.93-8.87-3.13-8.92-13.64-.54-27.36-.72-40.91.58-1.57.15-2.88,9.81-3.1,15.12-.21,5-.1,10.77,2.21,14.88C447.24,722,452.45,724.8,456.62,728.44Z"/><path class="cls-6" d="M0,728.3c21.53-11.92,12.64-31.87,12.79-48.51s7.6-35.38-10.69-49.25c3.49-2,5.51-4.13,7.54-4.14,17.89-.12,36-1.35,53.64.61,28.94,3.21,36.49,22.68,18.61,47.35,2.82,2.23,5.72,4.45,8.53,6.77,18.22,15.11,14.82,39.29-7.24,48A75.76,75.76,0,0,1,59.57,734c-15.32.78-30.7.48-46,.21-4.22-.07-8.42-1.59-12.64-2.44C.59,730.62.29,729.46,0,728.3Zm37.64-27.86C37.73,716,42,721,55,721c12.34,0,19.21-5.95,19.47-16.83.29-12.59-9.75-20.52-25.32-20.55C36.71,683.61,37.82,692.35,37.64,700.44Zm0-46.51c.16,7.83-.32,16.06,11.29,15.8,10.19-.23,17.8-7.23,17.36-16.43-.52-10.85-7.84-14.34-17.21-14.9C37.53,637.71,37.6,645.91,37.61,653.93Z"/><path class="cls-6" d="M568.29,627.8c1.85-.35,6.14-1.79,10.45-1.84,20-.25,40.12-.47,60.16.17,4.81.15,12.5,2.58,13.64,5.82,2.2,6.18.64,13.69-1.63,21.92-9-14.44-21.29-17.94-35.82-16.79-6.72.53-13.75.79-14,9.44-.22,8-4.56,19,6.19,22.16,4.61,1.36,11.64-5.23,17.46-8.41,1.37-.75,2.27-2.33,3.41-3.55,7.75,8.06,8.24,28.9,1.09,39.44-1.06-.53-2.6-.77-3.18-1.65-4.71-7.17-11.87-15.3-19.15-9.36-5.1,4.16-5.43,15.66-5.61,23.92-.22,9.77,7.76,12.08,16.08,12.65,15,1,28.38-.9,34.1-17.83.56-1.66,2.79-2.75,5.52-5.29,6.47,10.71,3.84,20.93.47,29.77-1.3,3.42-9.81,5.56-15.11,5.72-21.75.63-43.53.4-65.29.17-4.36,0-8.7-1.48-11.11-1.92C582.48,697.23,579.91,663.72,568.29,627.8Z"/><path class="cls-6" d="M1574.5,695.69c-.83-.14-2,0-2.4-.49-5.23-6.85-11.85-16.31-20.08-10.06-5.08,3.84-5.84,15.78-5.2,23.81.36,4.41,7,10.67,11.91,11.93,17.82,4.61,27.52-.42,37.87-16.76,1-1.62,2.84-2.75,5-4.8,8.26,9.48,4.29,19.53,1.55,27.86-1.21,3.7-10,6.67-15.52,6.87-21.69.77-43.43.43-65.15.21-4.39,0-8.78-1.32-12-1.84,17.63-34.84,13.92-68.35,3.32-104.61.83-.19,4.58-1.77,8.35-1.82,21.29-.23,42.59-.34,63.88,0,11.49.19,19,14.47,12.43,23.71-.85,1.2-7.49.65-8.36-.86-8.15-14.09-21.61-12.25-34.08-11-3.67.37-9.08,6.41-9.59,10.39-1,7.33-4.24,17.86,6.21,20.77,4.4,1.22,10.8-3.91,16-6.69,2-1,3.13-3.64,4.71-5.59C1581.26,665,1581.62,686.43,1574.5,695.69Z"/><path class="cls-6" d="M956,729.16c20.35-12.49,12.43-32.08,12.37-48.81s7.84-36.14-13.21-51.46c7.83-1.41,12.39-2.88,17-2.95,18.35-.27,36.7-.19,55.05-.09,20.09.1,24.06,6.19,17,26.94-1.86-.79-4.65-1.07-5.34-2.41-8.3-16.29-23.29-13.76-37-12.34-3.28.34-8.17,7.44-8.25,11.51-.12,6.52,3.14,13.11,5,19.67,5.72-1.74,11.67-3,17.06-5.44,2.54-1.16,4-4.69,9-6.25v39.72c-3.38-2-5.32-2.4-6-3.58-4.6-7.92-12.73-14-19.59-8.55C994.08,689,994,700,993.49,708c-.53,8.76,5.67,12.86,13.92,13.5,17.71,1.37,31.39.19,36.87-17.22a8,8,0,0,1,3.92-5.08c7.55,10.55,4.85,20.76,1.82,29.67-1.09,3.22-10,5.13-15.42,5.29-20.89.6-41.81.38-62.72.14-4.86,0-9.7-1.36-14.54-2.09Z"/><path class="cls-6" d="M169.37,732.27H127.94c27.69-29.72,32.42-67.26,48.83-99.3,1.87-3.66,6.63-8.57,9.58-8.27,3.93.4,9.07,4.6,10.78,8.46,10.17,23,18.93,46.54,29.42,69.34,3.67,8,10.93,14.34,16.45,21.51,1.41,1.84,3.16,3.89,3.38,6,.11,1.07-2.82,3.51-4.4,3.54a406.56,406.56,0,0,1-47-1.41c6.87-10,15.36-21.32,2.22-27.15-9.66-4.28-23.86-1.78-34.83,1.61C155.61,708.66,157.85,718.21,169.37,732.27Zm16.28-70.89L178,661q-2.73,12.75-5.44,25.5l15.85.43Q187,674.15,185.65,661.38Z"/><path class="cls-6" d="M1645.51,730c-1-10.2-5.92-21.23,1.89-35.57,3.79,6.22,6,10,8.35,13.7,7.46,12,21.9,18.08,34,12.9,4.43-1.88,9.82-6.91,10.32-11.05s-3.88-9.78-7.69-12.82c-4.5-3.6-10.79-4.87-16.09-7.58-6.42-3.28-13.08-6.39-18.78-10.69-9.5-7.17-14.21-17-11.78-29.14,2.51-12.49,10.48-21.89,22.7-23.05,14-1.33,28.3,1.17,42.46,2.19.87.07,2.3,1.79,2.32,2.76.18,8.46.11,16.93.11,25.4l-3.73,1.08c-2.7-3.4-5.52-6.7-8.07-10.2-6.15-8.4-14.47-12.49-24.42-9.67-4.1,1.17-9,5.63-10.05,9.54-.84,3.06,2.7,9.07,6,11.15,6.74,4.29,14.61,6.81,22,10.11,21.72,9.71,31.49,23.23,28.21,39-3.54,16.92-21.39,28.3-44,27C1668.42,734.29,1657.7,731.82,1645.51,730Z"/><path class="cls-6" d="M1763,729.6V697.81l3.61-1c2.31,3.66,4.66,7.29,6.92,11,7.67,12.53,22.71,18.73,35.07,13.14,4.45-2,9.88-7,10.33-11.19.42-3.94-4.16-10-8.17-12.51-7.48-4.72-16.3-7.25-24.29-11.25-19.33-9.66-27.15-25.1-21.16-41s24.25-23.86,43.84-19.3c6.47,1.51,13,2.74,21.34,4.48.39,1.39,2.12,4.56,2,7.66-.26,6.44-1.5,12.83-2.33,19.24-4-3.78-7.76-7.88-12.1-11.23-4-3-8.25-6.48-12.9-7.59-8.14-1.94-17.17-1.66-20.29,8.08-2.88,9,4.7,12.68,11.39,15.81,9.24,4.33,19,7.66,27.77,12.8,12.14,7.14,20,17.72,17.2,32.78-2.76,14.73-13.31,22.85-27.1,25.51-9,1.73-18.54.92-27.78.36C1779.38,733.09,1772.49,731.25,1763,729.6Z"/><path class="cls-6" d="M265.15,660c-11.31-22.21-5.11-34,14.84-34.12q37.06-.17,74.13,0c18.93.09,25.77,13.48,15.12,33.5-2.5-3.64-5-6.17-6.19-9.23-3.59-9.41-10.77-12.42-20.06-12.82-8.9-.39-13.77,3.11-13.74,12.45.07,19.59-1.08,39.29.65,58.73.65,7.28,7.92,14,12.82,22-4,5.49-41.1,7.1-54.35,0,0-.89-.25-2.36,0-2.47,16.86-6.44,15.84-20.6,15.43-34.78-.38-13.19,0-26.41-.16-39.62-.08-6.78.58-14.61-8.84-15.85-9.14-1.21-18.15-.55-23.44,8.84C269.41,650.12,268,653.91,265.15,660Z"/><path class="cls-6" d="M1218.83,731.61c18.74-19.64,19.63-82.23,4.14-100.88,8.1-6.57,35-7.12,46-.93-21.55,24.06-9.42,52.8-10.62,79.61-.15,3.25,3.68,7.91,6.91,9.86,13.13,7.91,35.28,1.5,43.55-11.6,1.58-2.51,4.63-4.09,7-6.1,1.22,2.87,3.43,5.72,3.52,8.62.61,21.71-1.89,24.16-23.72,24.21-19.6,0-39.21.15-58.81-.12C1231.61,734.2,1226.5,732.8,1218.83,731.61Z"/><path class="cls-6" d="M1093.57,627.81h45.31c-22.77,26-9.75,55.14-11.87,82.17-.25,3.2,4.5,8.38,8.13,10,15.37,7,34.24.51,42.91-13.66,1.22-2,3.14-3.54,4.73-5.3l4.42.66c-.62,9,.33,18.61-2.61,26.8-1.24,3.47-10.63,5.44-16.39,5.61-21.27.65-42.57.37-63.85.16-4.83,0-9.64-1.19-13.2-1.66C1108.26,697.44,1105.24,663.7,1093.57,627.81Z"/></g></g></svg>