<svg xmlns="http://www.w3.org/2000/svg" xmlns:xlink="http://www.w3.org/1999/xlink" viewBox="0 0 1841.81 856.96"><defs><style>.cls-1{fill:url(#Gradiente_sem_nome_55);}.cls-2{fill:url(#Gradiente_sem_nome_55-2);}.cls-3{fill:url(#Gradiente_sem_nome_55-3);}.cls-4{fill:url(#Gradiente_sem_nome_55-4);}.cls-5{fill:url(#Gradiente_sem_nome_55-5);}.cls-6{fill:url(#Gradiente_sem_nome_80);}.cls-7{fill:url(#Gradiente_sem_nome_80-2);}.cls-8{fill:url(#Gradiente_sem_nome_80-3);}.cls-9{fill:url(#Gradiente_sem_nome_80-4);}.cls-10{fill:url(#Gradiente_sem_nome_80-5);}.cls-11{fill:url(#Gradiente_sem_nome_80-6);}.cls-12{fill:url(#Gradiente_sem_nome_80-7);}.cls-13{fill:url(#Gradiente_sem_nome_80-8);}.cls-14{fill:url(#Gradiente_sem_nome_80-9);}.cls-15{fill:url(#Gradiente_sem_nome_80-10);}.cls-16{fill:url(#Gradiente_sem_nome_80-11);}.cls-17{fill:url(#Gradiente_sem_nome_80-12);}.cls-18{fill:url(#Gradiente_sem_nome_80-13);}.cls-19{fill:url(#Gradiente_sem_nome_80-14);}.cls-20{fill:url(#Gradiente_sem_nome_80-15);}.cls-21{fill:url(#Gradiente_sem_nome_80-16);}.cls-22{fill:url(#Gradiente_sem_nome_80-17);}.cls-23{fill:url(#Gradiente_sem_nome_80-18);}.cls-24{fill:url(#Gradiente_sem_nome_80-19);}.cls-25{fill:url(#Gradiente_sem_nome_80-20);}.cls-26{fill:#6078ea;}</style><linearGradient id="Gradiente_sem_nome_55" x1="1024.36" y1="599.75" x2="1024.36" y2="128.24" gradientUnits="userSpaceOnUse"><stop offset="0" stop-color="#007fff"/><stop offset="1" stop-color="#3c9"/></linearGradient><linearGradient id="Gradiente_sem_nome_55-2" x1="973.51" y1="291.44" x2="973.51" y2="54.58" xlink:href="#Gradiente_sem_nome_55"/><linearGradient id="Gradiente_sem_nome_55-3" x1="881.25" y1="609.25" x2="881.25" y2="411.36" xlink:href="#Gradiente_sem_nome_55"/><linearGradient id="Gradiente_sem_nome_55-4" x1="930.93" y1="594.04" x2="930.93" y2="289.27" xlink:href="#Gradiente_sem_nome_55"/><linearGradient id="Gradiente_sem_nome_55-5" x1="896.2" y1="408.1" x2="896.2" y2="301.18" xlink:href="#Gradiente_sem_nome_55"/><linearGradient id="Gradiente_sem_nome_80" x1="152.4" y1="911.46" x2="152.4" y2="856.42" gradientUnits="userSpaceOnUse"><stop offset="0" stop-color="#1dc8dc"/><stop offset="1" stop-color="#582e80"/></linearGradient><linearGradient id="Gradiente_sem_nome_80-2" x1="228.09" y1="911.54" x2="228.09" y2="856.42" xlink:href="#Gradiente_sem_nome_80"/><linearGradient id="Gradiente_sem_nome_80-3" x1="309.45" y1="910.67" x2="309.45" y2="857.29" xlink:href="#Gradiente_sem_nome_80"/><linearGradient id="Gradiente_sem_nome_80-4" x1="382.93" y1="910.67" x2="382.93" y2="857.29" xlink:href="#Gradiente_sem_nome_80"/><linearGradient id="Gradiente_sem_nome_80-5" x1="455.25" y1="911.54" x2="455.25" y2="856.42" xlink:href="#Gradiente_sem_nome_80"/><linearGradient id="Gradiente_sem_nome_80-6" x1="533.59" y1="910.67" x2="533.59" y2="856.9" xlink:href="#Gradiente_sem_nome_80"/><linearGradient id="Gradiente_sem_nome_80-7" x1="599.29" y1="910.67" x2="599.29" y2="857.29" xlink:href="#Gradiente_sem_nome_80"/><linearGradient id="Gradiente_sem_nome_80-8" x1="670.89" y1="911.54" x2="670.89" y2="856.42" xlink:href="#Gradiente_sem_nome_80"/><linearGradient id="Gradiente_sem_nome_80-9" x1="792.02" y1="910.67" x2="792.02" y2="857.29" xlink:href="#Gradiente_sem_nome_80"/><linearGradient id="Gradiente_sem_nome_80-10" x1="873.29" y1="911.54" x2="873.29" y2="856.42" xlink:href="#Gradiente_sem_nome_80"/><linearGradient id="Gradiente_sem_nome_80-11" x1="994.43" y1="910.67" x2="994.43" y2="857.29" xlink:href="#Gradiente_sem_nome_80"/><linearGradient id="Gradiente_sem_nome_80-12" x1="1075.7" y1="911.54" x2="1075.7" y2="856.42" xlink:href="#Gradiente_sem_nome_80"/><linearGradient id="Gradiente_sem_nome_80-13" x1="1189.37" y1="911.46" x2="1189.37" y2="856.42" xlink:href="#Gradiente_sem_nome_80"/><linearGradient id="Gradiente_sem_nome_80-14" x1="1256.2" y1="910.67" x2="1256.2" y2="857.29" xlink:href="#Gradiente_sem_nome_80"/><linearGradient id="Gradiente_sem_nome_80-15" x1="1326.4" y1="911.54" x2="1326.4" y2="857.29" xlink:href="#Gradiente_sem_nome_80"/><linearGradient id="Gradiente_sem_nome_80-16" x1="1441.95" y1="911.14" x2="1441.95" y2="856.9" xlink:href="#Gradiente_sem_nome_80"/><linearGradient id="Gradiente_sem_nome_80-17" x1="1513.1" y1="910.67" x2="1513.1" y2="857.29" xlink:href="#Gradiente_sem_nome_80"/><linearGradient id="Gradiente_sem_nome_80-18" x1="1590.86" y1="910.67" x2="1590.86" y2="857.29" xlink:href="#Gradiente_sem_nome_80"/><linearGradient id="Gradiente_sem_nome_80-19" x1="1670.55" y1="910.67" x2="1670.55" y2="857.29" xlink:href="#Gradiente_sem_nome_80"/><linearGradient id="Gradiente_sem_nome_80-20" x1="1751.51" y1="911.54" x2="1751.51" y2="856.42" xlink:href="#Gradiente_sem_nome_80"/></defs><title>BatheWellness_logo</title><g id="logo"><path class="cls-1" d="M810.68,128.24c3.62,5.36,6.54,9.23,9,13.36,28.36,47.78,63.23,89.5,111.41,118.55,32.83,19.8,68.9,29.35,106.68,35.34,33.9,5.37,67.55,13.43,100.53,23,27.74,8,52.72,22.7,71.94,45.17,41,47.9,40.8,116-.52,166-35.94,43.46-85.16,61.11-138.63,70.07-1.54.26-3.27-.65-6.66-1.4,3.7-5.36,6.54-9.77,9.67-14,17.94-24,34-48.87,37.14-79.86,3-29.52-7.72-53-31.72-69.53-14.55-10-30.54-18.1-46.37-26.09-36.91-18.63-75.38-34.5-110.92-55.38C839.79,305.05,805.31,229.94,808,136a16.7,16.7,0,0,1,.41-3.23C808.6,132.13,809.05,131.52,810.68,128.24Z" transform="translate(-33.43 -54.58)"/><path class="cls-2" d="M1032,281.16c5.33-4.75,10.77-9.39,16-14.26,34.92-32.65,44.77-85,24.36-129.15-19.89-43-67.08-69.84-113.57-65.08-10.09,1-9.94,7.57-9.95,14.73q-.06,76.74-.2,153.48c0,4.9-.76,9.79-1.32,16.52-4.81-2-8.19-3-11.07-4.75-35.8-22-65.16-50.74-88.94-85.19-2.86-4.14-4.16-10.07-4.32-15.23-.53-17.77-.15-35.56-.29-53.33-.13-16.09-4.11-21.39-19.72-25.19-6-1.46-10.28-3.37-9.74-10.5.57-7.55,6-8.27,11.68-8.27,62.4,0,124.84-1.15,187.21.58,53.45,1.47,99.34,38.83,115.44,89.77,16.33,51.68-.09,106.8-41.42,140.45-6.23,5.07-12.35,6.7-20,5.12-11.18-2.3-22.47-4.06-33.71-6.05Z" transform="translate(-33.43 -54.58)"/><path class="cls-3" d="M842.74,411.36c4.78,2.42,7.06,3.31,9,4.63,27.49,18.16,54.55,37,82.62,54.27,10.71,6.56,14.94,13.55,14.63,26-.81,32.65-.26,65.33-.41,98-.06,13.73-1.2,14.86-15,14.9q-52.82.15-105.63,0c-5.79,0-13.24,1.87-14.41-7.36-1.11-8.76,5.35-9.55,11.63-11,13-3,17.52-9,17.55-23.55.11-46.46,0-92.92,0-139.38Z" transform="translate(-33.43 -54.58)"/><path class="cls-4" d="M979.27,592.68c2.91-4.35,5.63-7.67,7.53-11.41,5.41-10.6,12-20.92,15.36-32.18,6.29-21.08,2-40.56-15.5-55.18-9.11-7.64-19.31-14-29.4-20.4-29.42-18.56-60-35.43-88.32-55.54-37.69-26.78-62.85-62.92-70.58-109.59-1-5.95-1.27-12-1.88-18l2.64-1.08c1.8,2.73,3.93,5.3,5.34,8.22,24.07,49.77,62.72,85,111.66,108.76,24.36,11.83,50.82,19.28,75.55,30.45,19,8.56,38.52,17.57,54.56,30.44,22.61,18.12,24.55,43.34,9.28,68.32-16.48,27-41.2,44.37-69,57.93a8,8,0,0,1-3.16.65C982.67,594.07,982,593.63,979.27,592.68Z" transform="translate(-33.43 -54.58)"/><path class="cls-5" d="M845.83,301.18c2.09,1.72,4.5,3.17,6.23,5.21C875.4,333.92,904,354.73,935.39,372c12.36,6.81,17.54,19.71,12.44,32.61-.77,2-6.1,4.11-8.11,3.27-35.54-14.91-67.92-34.94-93-64.53-4.83-5.7-3.06-17.14-3.91-26-.48-5-.09-10-.09-15Z" transform="translate(-33.43 -54.58)"/></g><g id="slogan"><path class="cls-6" d="M175.35,908.93c-2.88,1.26-8.64,2.53-16,2.53-17.1,0-30-9.5-30-27,0-16.71,12.87-28,31.68-28,7.56,0,12.33,1.43,14.4,2.38l-1.89,5.62a31.79,31.79,0,0,0-12.24-2.22c-14.22,0-23.67,8-23.67,22,0,13.07,8.55,21.46,23.31,21.46a35,35,0,0,0,12.78-2.22Z" transform="translate(-33.43 -54.58)"/><path class="cls-7" d="M255.81,883.43c0,18.37-12.69,28.11-28.17,28.11-16,0-27.27-10.93-27.27-27.08,0-17,12-28,28.17-28C245.1,856.42,255.81,867.59,255.81,883.43Zm-47.07.87c0,11.4,7,21.62,19.35,21.62s19.44-10.06,19.44-22.18c0-10.61-6.3-21.7-19.35-21.7S208.74,872.58,208.74,884.3Z" transform="translate(-33.43 -54.58)"/><path class="cls-8" d="M286.68,910.67V857.29h8.55l19.44,27a146.56,146.56,0,0,1,10.89,17.34l.18-.08a209,209,0,0,1-.9-21.93V857.29h7.38v53.38H324.3L305,883.58a164,164,0,0,1-11.34-17.81l-.27.08c.45,6.73.63,13.14.63,22v22.81Z" transform="translate(-33.43 -54.58)"/><path class="cls-9" d="M366.6,857.29h32.67v5.78H374.43v17.74h22.95v5.7H374.43v24.16H366.6Z" transform="translate(-33.43 -54.58)"/><path class="cls-10" d="M483,883.43c0,18.37-12.69,28.11-28.17,28.11-16,0-27.27-10.93-27.27-27.08,0-17,12-28,28.17-28C472.26,856.42,483,867.59,483,883.43Zm-47.07.87c0,11.4,7,21.62,19.35,21.62s19.44-10.06,19.44-22.18c0-10.61-6.3-21.7-19.35-21.7S435.9,872.58,435.9,884.3Z" transform="translate(-33.43 -54.58)"/><path class="cls-11" d="M513.84,858a91.59,91.59,0,0,1,15-1.11c8.37,0,13.77,1.34,17.55,4.35a12.58,12.58,0,0,1,4.77,10.14c0,7.05-5,11.72-11.43,13.62v.24c4.68,1.42,7.47,5.22,8.91,10.77,2,7.44,3.42,12.59,4.68,14.65h-8.1c-1-1.51-2.34-6.1-4-12.75-1.8-7.37-5-10.14-12.15-10.38h-7.38v23.13h-7.83Zm7.83,24.31h8c8.37,0,13.68-4,13.68-10.14,0-6.89-5.67-9.9-14-10a36.09,36.09,0,0,0-7.74.64Z" transform="translate(-33.43 -54.58)"/><path class="cls-12" d="M595.29,863.15H576.84v-5.86h44.91v5.86H603.21v47.52h-7.92Z" transform="translate(-33.43 -54.58)"/><path class="cls-13" d="M698.6,883.43c0,18.37-12.68,28.11-28.16,28.11-16,0-27.27-10.93-27.27-27.08,0-17,12-28,28.17-28C687.9,856.42,698.6,867.59,698.6,883.43Zm-47.06.87c0,11.4,7,21.62,19.35,21.62s19.43-10.06,19.43-22.18c0-10.61-6.3-21.7-19.34-21.7S651.54,872.58,651.54,884.3Z" transform="translate(-33.43 -54.58)"/><path class="cls-14" d="M769.26,910.67V857.29h8.54l19.44,27a146.56,146.56,0,0,1,10.89,17.34l.18-.08a209,209,0,0,1-.9-21.93V857.29h7.38v53.38h-7.92l-19.26-27.09a164,164,0,0,1-11.34-17.81l-.27.08c.46,6.73.63,13.14.63,22v22.81Z" transform="translate(-33.43 -54.58)"/><path class="cls-15" d="M901,883.43c0,18.37-12.69,28.11-28.17,28.11-16,0-27.27-10.93-27.27-27.08,0-17,12-28,28.17-28C890.3,856.42,901,867.59,901,883.43Zm-47.07.87c0,11.4,7,21.62,19.35,21.62s19.44-10.06,19.44-22.18c0-10.61-6.3-21.7-19.35-21.7S853.94,872.58,853.94,884.3Z" transform="translate(-33.43 -54.58)"/><path class="cls-16" d="M971.66,910.67V857.29h8.55l19.44,27a146.56,146.56,0,0,1,10.89,17.34l.18-.08a209,209,0,0,1-.9-21.93V857.29h7.38v53.38h-7.92L990,883.58a164,164,0,0,1-11.34-17.81l-.27.08c.45,6.73.63,13.14.63,22v22.81Z" transform="translate(-33.43 -54.58)"/><path class="cls-17" d="M1103.42,883.43c0,18.37-12.69,28.11-28.17,28.11-16,0-27.27-10.93-27.27-27.08,0-17,12-28,28.17-28C1092.71,856.42,1103.42,867.59,1103.42,883.43Zm-47.07.87c0,11.4,7,21.62,19.35,21.62s19.44-10.06,19.44-22.18c0-10.61-6.3-21.7-19.35-21.7S1056.35,872.58,1056.35,884.3Z" transform="translate(-33.43 -54.58)"/><path class="cls-18" d="M1173,902.27a30.62,30.62,0,0,0,14,3.49c8,0,12.69-3.72,12.69-9.11,0-5-3.24-7.84-11.43-10.61-9.9-3.09-16-7.6-16-15.13,0-8.31,7.83-14.49,19.62-14.49,6.21,0,10.71,1.27,13.41,2.62l-2.16,5.62a26.74,26.74,0,0,0-11.52-2.54c-8.28,0-11.43,4.36-11.43,8,0,5,3.69,7.45,12.06,10.3,10.26,3.48,15.48,7.84,15.48,15.68,0,8.23-6.93,15.36-21.24,15.36-5.85,0-12.24-1.5-15.48-3.4Z" transform="translate(-33.43 -54.58)"/><path class="cls-19" d="M1270.55,885.64H1247v19.25h26.28v5.78h-34.11V857.29h32.76v5.78H1247v16.87h23.58Z" transform="translate(-33.43 -54.58)"/><path class="cls-20" d="M1312,857.29v31.6c0,12,6,17,14.13,17,9,0,14.76-5.23,14.76-17v-31.6h7.92v31.13c0,16.39-9.81,23.12-23,23.12-12.42,0-21.78-6.26-21.78-22.81V857.29Z" transform="translate(-33.43 -54.58)"/><path class="cls-21" d="M1422.83,858a85.23,85.23,0,0,1,14.31-1.11c7.83,0,12.87,1.18,16.65,3.88a10.75,10.75,0,0,1,5,9.42c0,5.15-3.87,9.66-10.26,11.72v.16c5.76,1.27,12.51,5.46,12.51,13.38a13.65,13.65,0,0,1-5.13,10.7c-4.23,3.4-11.07,5-21,5a103.32,103.32,0,0,1-12.15-.63Zm7.83,21.85h7.11c8.28,0,13.14-3.8,13.14-9,0-6.25-5.4-8.71-13.32-8.71a37.67,37.67,0,0,0-6.93.48Zm0,25.58a47,47,0,0,0,6.57.32c8.1,0,15.57-2.61,15.57-10.38,0-7.28-7.11-10.29-15.66-10.29h-6.48Z" transform="translate(-33.43 -54.58)"/><path class="cls-22" d="M1502.12,893.88l-6.3,16.79h-8.1l20.61-53.38h9.45l20.7,53.38h-8.37l-6.48-16.79ZM1522,888.5l-5.94-15.37c-1.35-3.48-2.25-6.65-3.15-9.74h-.18c-.9,3.17-1.89,6.42-3.06,9.66l-5.94,15.45Z" transform="translate(-33.43 -54.58)"/><path class="cls-23" d="M1568.09,910.67V857.29h8.55l19.44,27A146.56,146.56,0,0,1,1607,901.64l.18-.08a209,209,0,0,1-.9-21.93V857.29h7.38v53.38h-7.92l-19.26-27.09a164,164,0,0,1-11.34-17.81l-.27.08c.45,6.73.63,13.14.63,22v22.81Z" transform="translate(-33.43 -54.58)"/><path class="cls-24" d="M1655.84,857.29v22.34h29.34V857.29h7.92v53.38h-7.92v-25h-29.34v25H1648V857.29Z" transform="translate(-33.43 -54.58)"/><path class="cls-25" d="M1779.22,883.43c0,18.37-12.68,28.11-28.16,28.11-16,0-27.27-10.93-27.27-27.08,0-17,12-28,28.17-28C1768.51,856.42,1779.22,867.59,1779.22,883.43Zm-47.06.87c0,11.4,7,21.62,19.35,21.62s19.43-10.06,19.43-22.18c0-10.61-6.29-21.7-19.34-21.7S1732.16,872.58,1732.16,884.3Z" transform="translate(-33.43 -54.58)"/></g><g id="nome"><path class="cls-26" d="M872.4,727c-6.57,17-12.73,34.14-20,50.84-2.07,4.78-7.27,8.21-11,12.26-3.79-3.95-9.11-7.25-11.09-11.95-6.93-16.49-12.42-33.57-19-50.21-6.25-15.78-8.14-34.34-27.53-43.07,18.25-6,35.07-5.4,56.62-1.63-18.84,10.23-11,21.48-7.31,32.28,3.86,11.15,7.95,22.23,11.93,33.34l4.46.7c5.47-16.07,11.4-32,15.92-48.32.72-2.62-5.58-6.7-7.41-10.67-1.19-2.59-.25-9-.13-9,14.49-.41,29-.39,44.9,1.48-14.6,11.18-7.31,22.76-4.08,33.84,3.15,10.81,6.8,21.48,10.23,32.21l4.31.08c5.56-16.71,11.76-33.25,16.17-50.26,1-3.72-4.45-9.1-7-13.84,7.7-6.35,25.47-6.9,36.75-.67-25.4,25.55-27.61,61.73-42.62,92-2.65,5.35-8.29,9.21-12.55,13.75-3.77-4.54-9-8.51-11-13.73-6.29-16.19-11.36-32.85-16.91-49.33Z" transform="translate(-33.43 -54.58)"/><path class="cls-26" d="M1476.26,750.57c6.27-29.32,2.84-50.4-11.48-67.91H1506c.22,1.51.68,3,.42,3.09-14.85,8.26-12.38,22.51-12.44,35.85-.08,17.06.56,34.17-.45,51.17-.35,5.83-3.28,14.19-7.64,16.51-7.9,4.21-15.26-.67-20.5-8.14-13.49-19.19-27.23-38.21-40.93-57.27a32.91,32.91,0,0,0-9.52-9.39c2,23.44-11.92,48.68,10.06,69.31-5.62,4.69-31.33,7.82-36.91,3.72-1.29-1-.72-5.85.37-8.33,2.87-6.51,8.84-12.51,9.36-19a311.5,311.5,0,0,0,0-51.11c-.73-8.42-6-16.45-9.37-25.19,10.52-7.74,35.58-5.24,43.92,6.13,11.87,16.16,23.27,32.65,34.93,49C1469.64,742.29,1472.3,745.48,1476.26,750.57Z" transform="translate(-33.43 -54.58)"/><path class="cls-26" d="M490.06,783c-10.08,7.64-38.82,8.19-51.79,1.1,20.52-12.27,13.27-32.06,13-49.21-.29-16.92,7.93-36.26-9.67-52.32h49c-14.48,13.35-23.26,29.4-8.87,40.85,7.92,6.3,26.33,2.53,38.75-1.06,7.79-2.25,2.23-24.58-8.9-37.06,7.76-6.59,34.84-7.17,47.19-.29-17.25,13.51-11.42,32.49-10.87,49.53.54,16.7-8.83,36.71,12.62,48-8.71,8.26-39.29,8.91-52.36.5,16.53-6.1,16.23-19.28,15-32.59-.28-3.18-1.93-8.87-3.13-8.92-13.64-.54-27.36-.72-40.91.58-1.57.15-2.88,9.81-3.1,15.11-.21,5-.1,10.77,2.21,14.89C480.68,776.54,485.88,779.37,490.06,783Z" transform="translate(-33.43 -54.58)"/><path class="cls-26" d="M33.43,782.88C55,771,46.07,751,46.23,734.37s7.6-35.38-10.7-49.25c3.5-2,5.51-4.13,7.54-4.15,17.89-.12,35.95-1.34,53.64.62,29,3.21,36.49,22.68,18.62,47.35,2.81,2.23,5.71,4.44,8.52,6.77,18.22,15.11,14.83,39.29-7.23,48A75.54,75.54,0,0,1,93,788.58c-15.32.78-30.7.48-46,.22-4.23-.07-8.43-1.59-12.64-2.44C34,785.2,33.73,784,33.43,782.88ZM71.07,755c.1,15.58,4.32,20.59,17.37,20.58,12.34,0,19.21-6,19.46-16.84.3-12.58-9.75-20.51-25.32-20.55C70.14,738.19,71.25,746.92,71.07,755Zm0-46.51c.16,7.83-.31,16.06,11.29,15.8,10.19-.23,17.8-7.23,17.36-16.44C99.18,697,91.86,693.54,82.48,693,71,692.28,71,700.49,71,708.51Z" transform="translate(-33.43 -54.58)"/><path class="cls-26" d="M601.72,682.37c1.86-.34,6.14-1.79,10.45-1.84,20.05-.24,40.12-.46,60.16.18,4.82.15,12.5,2.58,13.65,5.82,2.19,6.18.63,13.69-1.64,21.92-9-14.44-21.29-18-35.82-16.79-6.72.53-13.75.79-14,9.44-.23,8-4.57,19,6.18,22.15,4.61,1.37,11.65-5.22,17.47-8.41,1.36-.74,2.26-2.32,3.4-3.54,7.75,8.06,8.24,28.9,1.09,39.43-1.06-.52-2.6-.77-3.18-1.64-4.71-7.17-11.87-15.3-19.15-9.36-5.09,4.15-5.43,15.65-5.61,23.92-.22,9.76,7.76,12.08,16.08,12.64,15,1,28.39-.89,34.11-17.83.55-1.65,2.79-2.74,5.51-5.28,6.47,10.71,3.85,20.93.47,29.77-1.3,3.41-9.81,5.56-15.11,5.72-21.75.63-43.52.4-65.28.17-4.36-.05-8.71-1.48-11.12-1.92C615.91,751.81,613.35,718.29,601.72,682.37Z" transform="translate(-33.43 -54.58)"/><path class="cls-26" d="M1607.93,750.26c-.82-.14-2,0-2.4-.48-5.23-6.86-11.85-16.31-20.08-10.07-5.07,3.85-5.84,15.78-5.19,23.82.35,4.41,7,10.66,11.91,11.93,17.81,4.61,27.52-.43,37.86-16.76,1-1.63,2.84-2.75,5-4.8,8.25,9.47,4.28,19.52,1.54,27.86-1.21,3.69-10,6.67-15.51,6.86-21.7.77-43.44.43-65.16.22-4.39,0-8.77-1.32-12-1.84,17.62-34.85,13.91-68.35,3.31-104.62.83-.19,4.58-1.77,8.35-1.81,21.29-.23,42.59-.34,63.88,0,11.49.18,19,14.47,12.43,23.7-.85,1.21-7.48.66-8.36-.86-8.14-14.08-21.6-12.25-34.07-11-3.68.37-9.09,6.41-9.6,10.38-.94,7.33-4.24,17.86,6.21,20.77,4.41,1.23,10.8-3.9,16-6.68,2-1.06,3.13-3.64,4.72-5.59C1614.69,719.53,1615.05,741,1607.93,750.26Z" transform="translate(-33.43 -54.58)"/><path class="cls-26" d="M989.43,783.73c20.36-12.49,12.43-32.07,12.37-48.81s7.84-36.13-13.2-51.45c7.83-1.42,12.38-2.89,16.95-3,18.35-.28,36.7-.19,55-.1,20.09.11,24.06,6.2,17,27-1.86-.8-4.65-1.07-5.33-2.41-8.3-16.3-23.3-13.76-37-12.35-3.28.34-8.16,7.45-8.24,11.52-.13,6.52,3.14,13.11,5,19.67,5.72-1.74,11.68-3,17.07-5.44,2.53-1.16,4-4.69,9-6.25v39.72c-3.39-2-5.33-2.4-6-3.58-4.6-7.93-12.74-14-19.6-8.55-4.88,3.89-5,14.9-5.46,22.84-.54,8.77,5.67,12.86,13.91,13.5,17.71,1.37,31.39.2,36.87-17.21a8,8,0,0,1,3.93-5.09c7.54,10.55,4.84,20.76,1.81,29.68-1.09,3.22-10,5.13-15.42,5.29-20.89.59-41.81.37-62.72.14-4.85-.05-9.69-1.36-14.54-2.09Z" transform="translate(-33.43 -54.58)"/><path class="cls-26" d="M202.81,786.84H161.38c27.68-29.71,32.41-67.26,48.82-99.3,1.87-3.65,6.64-8.56,9.59-8.26,3.92.4,9.07,4.6,10.77,8.46,10.17,23,18.94,46.54,29.42,69.34,3.68,8,10.93,14.33,16.45,21.5,1.42,1.84,3.16,3.89,3.38,6,.11,1.07-2.81,3.51-4.4,3.54a406.45,406.45,0,0,1-47-1.41c6.87-10,15.35-21.33,2.21-27.15-9.66-4.29-23.86-1.79-34.83,1.61C189,763.24,191.28,772.79,202.81,786.84ZM219.08,716l-7.69-.42q-2.71,12.75-5.44,25.51l15.85.43Q220.45,728.72,219.08,716Z" transform="translate(-33.43 -54.58)"/><path class="cls-26" d="M1679,784.53c-1-10.2-5.93-21.24,1.88-35.58,3.8,6.23,6.05,10,8.36,13.71,7.46,12,21.89,18.07,34,12.9,4.43-1.88,9.82-6.92,10.32-11s-3.88-9.78-7.68-12.83c-4.5-3.6-10.8-4.86-16.1-7.57-6.42-3.29-13.08-6.39-18.78-10.7-9.5-7.16-14.21-17-11.77-29.13,2.51-12.49,10.47-21.9,22.69-23.06,14-1.32,28.3,1.17,42.46,2.2.87.06,2.3,1.78,2.32,2.76.19,8.46.11,16.93.11,25.4l-3.72,1.08c-2.7-3.4-5.52-6.71-8.08-10.21-6.14-8.4-14.46-12.49-24.42-9.66-4.1,1.16-9,5.63-10,9.53-.84,3.07,2.7,9.07,6,11.15,6.74,4.3,14.61,6.82,22,10.12,21.72,9.71,31.5,23.23,28.21,39-3.53,16.91-21.39,28.3-44,27C1701.85,788.87,1691.14,786.39,1679,784.53Z" transform="translate(-33.43 -54.58)"/><path class="cls-26" d="M1796.45,784.18V752.39l3.61-1c2.3,3.66,4.65,7.29,6.91,11,7.67,12.53,22.71,18.73,35.07,13.14,4.45-2,9.89-7.05,10.33-11.19.43-3.95-4.16-10-8.17-12.51-7.48-4.72-16.3-7.26-24.29-11.25-19.33-9.67-27.14-25.1-21.16-41s24.25-23.86,43.84-19.3c6.47,1.5,13,2.74,21.34,4.48.4,1.39,2.13,4.56,2,7.66-.25,6.43-1.49,12.83-2.33,19.24-4-3.78-7.76-7.88-12.1-11.23-4-3.05-8.24-6.48-12.9-7.59-8.14-1.94-17.17-1.66-20.28,8.08-2.89,9,4.69,12.67,11.38,15.81,9.24,4.32,19,7.65,27.78,12.8,12.14,7.14,20,17.72,17.19,32.77-2.76,14.74-13.31,22.85-27.1,25.52-9,1.73-18.53.92-27.78.36C1812.81,787.66,1805.92,785.83,1796.45,784.18Z" transform="translate(-33.43 -54.58)"/><path class="cls-26" d="M298.59,714.54c-11.31-22.21-5.11-34,14.83-34.13q37.07-.15,74.13,0c18.94.09,25.78,13.48,15.12,33.5-2.5-3.64-5-6.18-6.19-9.23-3.59-9.41-10.77-12.42-20.05-12.82-8.91-.39-13.78,3.11-13.75,12.44.07,19.6-1.07,39.3.66,58.74.64,7.28,7.91,14,12.81,22-4,5.49-41.09,7.11-54.35.05,0-.88-.24-2.35,0-2.46,16.86-6.44,15.84-20.6,15.44-34.78-.38-13.2,0-26.41-.16-39.62-.09-6.78.57-14.61-8.84-15.86-9.15-1.21-18.16-.55-23.45,8.84C302.85,704.7,301.39,708.49,298.59,714.54Z" transform="translate(-33.43 -54.58)"/><path class="cls-26" d="M1252.26,786.19c18.74-19.64,19.64-82.23,4.14-100.88,8.1-6.58,35-7.12,46-.93-21.56,24.06-9.43,52.79-10.63,79.61-.14,3.24,3.69,7.91,6.92,9.85,13.12,7.92,35.27,1.51,43.54-11.6,1.59-2.5,4.63-4.09,7-6.1,1.23,2.88,3.44,5.72,3.52,8.63.62,21.71-1.89,24.15-23.71,24.2-19.61,0-39.22.16-58.82-.12C1265.05,788.78,1259.93,787.37,1252.26,786.19Z" transform="translate(-33.43 -54.58)"/><path class="cls-26" d="M1127,682.38h45.32c-22.77,26-9.75,55.14-11.87,82.18-.26,3.2,4.5,8.38,8.12,10,15.37,7,34.25.51,42.92-13.66,1.21-2,3.13-3.55,4.72-5.31l4.42.67c-.62,9,.34,18.61-2.6,26.8-1.25,3.47-10.63,5.44-16.39,5.61-21.27.64-42.57.36-63.86.16-4.82-.05-9.64-1.19-13.2-1.66C1141.69,752,1138.67,718.28,1127,682.38Z" transform="translate(-33.43 -54.58)"/></g></svg>